<mxfile host="app.diagrams.net" agent="Mozilla/5.0 (Windows NT 10.0; Win64; x64) AppleWebKit/537.36 (KHTML, like Gecko) Chrome/136.0.0.0 Safari/537.36" version="27.0.6" pages="2">
  <diagram name="Page-1" id="ydDnURYtTBZDuRAsIQ-S">
    <mxGraphModel dx="1042" dy="562" grid="1" gridSize="10" guides="1" tooltips="1" connect="1" arrows="1" fold="1" page="1" pageScale="1" pageWidth="850" pageHeight="1100" math="0" shadow="0">
      <root>
        <mxCell id="0" />
        <mxCell id="1" parent="0" />
        <mxCell id="602KZq2ehH_5Vty98nn4-3" value="" style="edgeStyle=orthogonalEdgeStyle;rounded=0;orthogonalLoop=1;jettySize=auto;html=1;" edge="1" parent="1" source="602KZq2ehH_5Vty98nn4-1" target="602KZq2ehH_5Vty98nn4-2">
          <mxGeometry relative="1" as="geometry" />
        </mxCell>
        <mxCell id="602KZq2ehH_5Vty98nn4-1" value="passenger_enters" style="rounded=0;whiteSpace=wrap;html=1;" vertex="1" parent="1">
          <mxGeometry x="120" y="100" width="120" height="60" as="geometry" />
        </mxCell>
        <mxCell id="602KZq2ehH_5Vty98nn4-7" value="" style="edgeStyle=orthogonalEdgeStyle;rounded=0;orthogonalLoop=1;jettySize=auto;html=1;" edge="1" parent="1" source="602KZq2ehH_5Vty98nn4-2" target="602KZq2ehH_5Vty98nn4-6">
          <mxGeometry relative="1" as="geometry" />
        </mxCell>
        <mxCell id="602KZq2ehH_5Vty98nn4-2" value="place_the_card&lt;div&gt;to_scan&lt;/div&gt;" style="whiteSpace=wrap;html=1;rounded=0;" vertex="1" parent="1">
          <mxGeometry x="120" y="210" width="120" height="60" as="geometry" />
        </mxCell>
        <mxCell id="602KZq2ehH_5Vty98nn4-9" value="" style="edgeStyle=orthogonalEdgeStyle;rounded=0;orthogonalLoop=1;jettySize=auto;html=1;" edge="1" parent="1" source="602KZq2ehH_5Vty98nn4-6" target="602KZq2ehH_5Vty98nn4-8">
          <mxGeometry relative="1" as="geometry" />
        </mxCell>
        <mxCell id="602KZq2ehH_5Vty98nn4-11" value="" style="edgeStyle=orthogonalEdgeStyle;rounded=0;orthogonalLoop=1;jettySize=auto;html=1;" edge="1" parent="1" source="602KZq2ehH_5Vty98nn4-6" target="602KZq2ehH_5Vty98nn4-10">
          <mxGeometry relative="1" as="geometry" />
        </mxCell>
        <mxCell id="602KZq2ehH_5Vty98nn4-6" value="check_key_and&lt;div&gt;then_amount_is_&lt;/div&gt;&lt;div&gt;checked&lt;/div&gt;" style="rhombus;whiteSpace=wrap;html=1;rounded=0;" vertex="1" parent="1">
          <mxGeometry x="115" y="300" width="130" height="150" as="geometry" />
        </mxCell>
        <mxCell id="602KZq2ehH_5Vty98nn4-8" value="exit_if_invalid" style="whiteSpace=wrap;html=1;rounded=0;" vertex="1" parent="1">
          <mxGeometry x="350" y="345" width="120" height="60" as="geometry" />
        </mxCell>
        <mxCell id="602KZq2ehH_5Vty98nn4-14" value="" style="edgeStyle=orthogonalEdgeStyle;rounded=0;orthogonalLoop=1;jettySize=auto;html=1;" edge="1" parent="1" source="602KZq2ehH_5Vty98nn4-10" target="602KZq2ehH_5Vty98nn4-12">
          <mxGeometry relative="1" as="geometry" />
        </mxCell>
        <mxCell id="602KZq2ehH_5Vty98nn4-16" value="" style="edgeStyle=orthogonalEdgeStyle;rounded=0;orthogonalLoop=1;jettySize=auto;html=1;" edge="1" parent="1" source="602KZq2ehH_5Vty98nn4-10" target="602KZq2ehH_5Vty98nn4-15">
          <mxGeometry relative="1" as="geometry" />
        </mxCell>
        <mxCell id="602KZq2ehH_5Vty98nn4-10" value="read_amount_and&lt;div&gt;stationid_and_time&lt;/div&gt;&lt;div&gt;is_written&lt;/div&gt;" style="whiteSpace=wrap;html=1;rounded=0;" vertex="1" parent="1">
          <mxGeometry x="120" y="480" width="120" height="60" as="geometry" />
        </mxCell>
        <mxCell id="602KZq2ehH_5Vty98nn4-19" style="edgeStyle=orthogonalEdgeStyle;rounded=0;orthogonalLoop=1;jettySize=auto;html=1;entryX=1;entryY=0.75;entryDx=0;entryDy=0;" edge="1" parent="1" source="602KZq2ehH_5Vty98nn4-12" target="602KZq2ehH_5Vty98nn4-15">
          <mxGeometry relative="1" as="geometry">
            <Array as="points">
              <mxPoint x="410" y="665" />
            </Array>
          </mxGeometry>
        </mxCell>
        <mxCell id="602KZq2ehH_5Vty98nn4-12" value="if_no_wifi&lt;div&gt;stationid_is _written&lt;/div&gt;&lt;div&gt;added_to_queue&lt;/div&gt;" style="ellipse;whiteSpace=wrap;html=1;" vertex="1" parent="1">
          <mxGeometry x="350" y="470" width="120" height="80" as="geometry" />
        </mxCell>
        <mxCell id="602KZq2ehH_5Vty98nn4-15" value="sent_to_aws_iot&lt;div&gt;core&lt;/div&gt;" style="whiteSpace=wrap;html=1;rounded=0;" vertex="1" parent="1">
          <mxGeometry x="120" y="620" width="120" height="60" as="geometry" />
        </mxCell>
        <mxCell id="602KZq2ehH_5Vty98nn4-20" value="check_for_wifi_in_the&lt;div&gt;background_for_each_5min&lt;/div&gt;" style="text;html=1;align=center;verticalAlign=middle;whiteSpace=wrap;rounded=0;" vertex="1" parent="1">
          <mxGeometry x="340" y="635" width="60" height="30" as="geometry" />
        </mxCell>
      </root>
    </mxGraphModel>
  </diagram>
  <diagram id="HidzXYNfw6UOsmcaIAhi" name="Page-2">
    <mxGraphModel dx="1281" dy="614" grid="0" gridSize="10" guides="1" tooltips="1" connect="1" arrows="1" fold="1" page="0" pageScale="1" pageWidth="850" pageHeight="1100" math="0" shadow="0">
      <root>
        <mxCell id="0" />
        <mxCell id="1" parent="0" />
      </root>
    </mxGraphModel>
  </diagram>
</mxfile>
